<?xml version="1.0" encoding="UTF-8"?>
<svg id="Layer_2" data-name="Layer 2" xmlns="http://www.w3.org/2000/svg" viewBox="0 0 514.67 146.56">
  <defs>
    <style>
      .cls-1 {
        fill: none;
      }

      .cls-1, .cls-2, .cls-3, .cls-4 {
        stroke-width: 0px;
      }

      .cls-2 {
        fill: #4c4c4c;
      }

      .cls-3 {
        fill: #3458a9;
      }

      .cls-4 {
        fill: #719b30;
      }
    </style>
  </defs>
  <g id="E2S_Logo_Ext_Main">
    <g id="E2S_Logo_Ext_Main-2" data-name="E2S_Logo_Ext_Main">
      <g>
        <g>
          <path class="cls-2" d="m280.56,66.94V27.53h27.3v4.43h-22.27v12.59h21.46v4.43h-21.46v13.52h23.25v4.43h-28.27Z"/>
          <path class="cls-2" d="m348.13,66.94v-33.03l-11.08,33.03h-5.3l-11.19-33.03v33.03h-4.76V27.53h6.98l11.68,34.33,11.46-34.33h6.98v39.41h-4.76Z"/>
          <path class="cls-2" d="m378.83,66.94h-17.79V27.53h16c7.46,0,11.68,4.27,11.68,10,0,4-1.89,6.92-5.46,8.6,5.03,1.95,7.19,4.81,7.19,9.57,0,6.49-4.54,11.25-11.62,11.25Zm-3.03-34.98h-9.73v12.54h9.73c5.57,0,7.89-2.27,7.89-6.27s-2.33-6.27-7.89-6.27Zm2.54,16.98h-12.27v13.57h12.27c4.76,0,7.08-2.97,7.08-6.76s-2.33-6.81-7.08-6.81Z"/>
          <path class="cls-2" d="m397.69,66.94V27.53h27.3v4.43h-22.27v12.59h21.46v4.43h-21.46v13.52h23.25v4.43h-28.27Z"/>
          <path class="cls-2" d="m448.89,66.94h-15.19V27.53h15.19c10,0,16.06,7.46,16.06,19.68s-6.11,19.73-16.06,19.73Zm-.87-34.98h-9.3v30.54h9.3c7.79,0,11.89-5.3,11.89-15.24s-4.11-15.3-11.89-15.3Z"/>
          <path class="cls-2" d="m286.89,90.98h-5.82v-5.82h5.82v5.82Zm5.82,23.28h17.46v5.82h-29.11v-5.82h5.82v-5.82h5.82v5.82Zm11.64-29.11h-17.47v-5.82h17.47v5.82Zm-5.82,23.28h-5.82v-5.82h5.82v5.82Zm5.82-5.82h-5.82v-5.82h5.82v5.82Zm5.82-5.82h-5.82v-11.64h5.82v11.64Z"/>
          <path class="cls-2" d="m333.06,121.07c-9.38,0-15.71-4.53-15.71-13.91h4.8c0,5.67,3.71,9.44,11.24,9.44,6.87,0,10.15-2.56,10.15-6.93,0-3.11-2.29-5.13-7.31-6.44l-9.87-2.62c-5.24-1.36-7.8-4.42-7.8-9.27,0-7.2,5.4-12,14.13-12,9.17,0,14.57,4.53,14.57,12.33h-4.8c0-5.18-3.6-8.07-9.93-8.07-5.35,0-8.89,3-8.89,7.04,0,3.06,1.74,4.64,6.55,5.89l9.98,2.67c5.4,1.47,8.46,5.08,8.46,9.98,0,7.09-5.46,11.89-15.55,11.89Z"/>
          <path class="cls-2" d="m371.68,121.07c-11.67,0-17.95-8.78-17.95-20.4s6.11-21.33,18.17-21.33c8.73,0,13.75,4.58,15.33,13.31h-5.18c-1.25-6.05-4.53-8.84-10.75-8.84-7.69,0-12.49,6.6-12.49,16.8s5.02,15.98,12.93,15.98c6.71,0,9.87-3.49,11.07-11.02h5.24c-1.2,10.36-6.65,15.49-16.36,15.49Z"/>
          <path class="cls-2" d="m418.8,120.09l-4.09-11.95h-15.33l-4.2,11.95h-5.4l14.18-39.77h6.55l13.97,39.77h-5.67Zm-11.62-34.31l-6.55,18.11h12.65l-6.11-18.11Z"/>
          <path class="cls-2" d="m429.6,120.09v-39.77h5.07v35.29h19.64v4.47h-24.71Z"/>
          <path class="cls-2" d="m460.47,120.09v-39.77h27.55v4.47h-22.47v12.71h21.66v4.47h-21.66v13.64h23.46v4.47h-28.53Z"/>
        </g>
        <g>
          <g>
            <rect class="cls-4" x="107.01" y="39.97" width="13.32" height="13.32"/>
            <rect class="cls-4" x="133.66" y="79.94" width="13.32" height="13.32"/>
            <polygon class="cls-4" points="146.98 26.65 133.66 26.65 120.33 26.65 120.33 39.97 133.66 39.97 146.98 39.97 160.31 39.97 160.31 26.65 146.98 26.65"/>
            <rect class="cls-4" x="146.98" y="66.62" width="13.32" height="13.32"/>
            <polygon class="cls-4" points="160.31 39.97 160.31 53.29 160.31 66.62 173.63 66.62 173.63 53.29 173.63 39.97 160.31 39.97"/>
            <polygon class="cls-4" points="120.33 106.59 107.01 106.59 107.01 119.91 120.33 119.91 133.66 119.91 146.98 119.91 160.31 119.91 173.63 119.91 173.63 106.59 160.31 106.59 146.98 106.59 133.66 106.59 133.66 93.26 120.33 93.26 120.33 106.59"/>
          </g>
          <path class="cls-3" d="m236.46,69.82l-22.2-5.94c-10.2-2.67-13.82-5.84-13.82-12.15,0-8.63,7.72-14.66,18.78-14.66,13.6,0,21.09,6.02,21.09,16.96v.99h12.65v-.99c0-17.78-12.47-28.4-33.37-28.4-19.68,0-32.39,10.86-32.39,27.67,0,11.19,6.08,18.44,18.07,21.57l21.96,5.82c10.73,2.8,15.51,6.92,15.51,13.36,0,11.92-11.73,14.42-21.57,14.42-15.25,0-24-7.29-24-20v-.99h-12.65v.99c0,20.28,13.09,31.91,35.92,31.91s35.55-10.51,35.55-27.43c0-11.32-7.12-19.76-19.53-23.15Z"/>
          <polygon class="cls-3" points="40.26 107.67 40.26 78.33 89.98 78.33 89.98 66.09 40.26 66.09 40.26 38.89 91.86 38.89 91.86 26.65 26.65 26.65 26.65 119.91 94.11 119.91 94.11 107.67 40.26 107.67"/>
        </g>
      </g>
      <rect class="cls-1" x="0" y="0" width="514.67" height="146.56"/>
    </g>
  </g>
</svg>